<svg width="7568" height="1244" viewBox="0 0 7568 1244" fill="none" xmlns="http://www.w3.org/2000/svg">
<path d="M1066.39 223.5V252.472C1066.39 258.92 1065.86 264.468 1064.78 269.107C1063.72 273.771 1062.1 278.606 1059.96 283.602C1059.24 285.743 1058.35 287.714 1057.27 289.506C1056.2 291.299 1055.3 292.896 1054.58 294.332L865.821 694.609L666.309 223.5H469.047C544.674 257.204 581.46 334.366 581.46 334.366L807.543 863.138L1069.61 294.332H1070.67L1114.66 821.244C1116.09 831.974 1116.97 841.473 1117.34 849.68C1117.69 857.913 1117.88 864.897 1117.88 870.606C1117.88 882.059 1116.97 891.006 1115.19 897.429C1113.4 903.886 1110.73 909.612 1107.15 914.599L1102.88 918.907C1101.42 920.343 1100 922.118 1098.57 924.268C1090.7 933.571 1081.04 941.082 1069.61 946.808C1058.17 952.534 1046.01 956.825 1033.14 959.68C1027.41 961.107 1021.7 962.364 1015.98 963.435C1010.25 964.514 1004.89 964.692 999.888 963.979V979H1371V963.979L1328.1 962.908C1315.24 961.481 1303.25 956.459 1292.18 947.878C1281.08 939.297 1271.6 929.994 1263.75 919.977C1261.61 917.123 1259.46 914.259 1257.31 911.388C1255.17 908.533 1253.38 905.67 1251.96 902.798C1248.37 897.802 1245.69 892.246 1243.9 886.171C1242.11 880.105 1240.86 870.972 1240.14 858.797C1239.43 855.959 1238.89 852.739 1238.54 849.145C1238.18 845.568 1238 841.635 1238 837.336L1203.69 389.828C1203.69 386.991 1203.51 384.119 1203.14 381.256C1202.77 378.401 1202.24 375.529 1201.54 372.675C1200.82 364.799 1200.1 357.475 1199.4 350.67C1198.67 343.881 1198.32 337.977 1198.32 332.964C1198.32 327.238 1198.86 321.698 1199.93 316.32C1201.01 310.959 1202.96 305.785 1205.83 300.772C1208.68 296.473 1212.09 292.183 1216.02 287.892C1219.95 283.601 1225.14 278.954 1231.58 273.941C1233.72 271.8 1236.4 269.642 1239.61 267.501C1242.83 265.352 1246.21 262.854 1249.82 259.991C1254.8 257.136 1260.34 254.46 1266.43 251.936C1272.5 249.43 1278.75 247.111 1285.21 244.97C1288.78 243.542 1292.18 242.463 1295.4 241.75C1298.62 241.027 1301.99 240.322 1305.57 239.6L1338.83 237.451V223.5H1066.39Z" fill="url(#paint0_linear)"/>
<path d="M0 210V223.73H58.1341C58.1341 223.73 89.1202 222.362 92.1433 278.572L92.2452 278.683V280.628C92.3386 282.88 92.398 285.191 92.398 287.621L92.2452 287.697V397.187C99.4461 385.284 110.723 380.492 114.68 379.124C114.587 374.918 114.536 370.364 114.519 365.623C109.28 365.513 105.254 364.876 105.254 364.094C105.254 363.33 109.28 362.701 114.519 362.59C114.544 339.192 115.597 320.348 116.905 320.348C118.204 320.348 119.257 339.201 119.291 362.616C123.919 362.803 127.333 363.397 127.333 364.094C127.333 364.808 123.919 365.411 119.283 365.589C119.266 370.551 119.206 375.309 119.104 379.693C127.172 382.913 148.749 394.57 146.125 427.016V429.973C159.839 430.831 168.908 432.326 168.908 434.009C168.908 435.699 159.839 437.195 146.125 438.053V491.171C161.716 493.261 172.126 496.956 172.126 501.221C172.126 505.444 161.818 509.14 146.346 511.247L152.655 734.134C164.56 736.3 172.126 739.546 172.126 743.174C172.126 746.734 164.764 749.937 153.165 752.095L154.973 815.858C172.483 793.284 196.022 774.958 217.022 761.5L217.26 725.638C209.745 724.431 204.853 722.494 204.853 720.311C204.853 718.127 209.77 716.19 217.328 714.975L218.117 589.657C210.101 588.442 204.853 586.454 204.853 584.186C204.853 581.909 210.118 579.912 218.151 578.714V548.477C211.876 547.967 207.877 547.211 207.877 546.361C207.877 545.529 211.876 544.772 218.151 544.271V542.445C216.572 522.861 230.643 516.718 234.218 515.478C234.158 513.107 234.124 510.567 234.116 507.891C231.178 507.814 228.91 507.466 228.91 507.041C228.91 506.599 231.178 506.251 234.116 506.183C234.133 493.014 234.727 482.411 235.457 482.411C236.196 482.411 236.782 493.031 236.799 506.209C239.406 506.302 241.334 506.642 241.334 507.041C241.334 507.432 239.406 507.763 236.782 507.865C236.782 510.669 236.765 513.345 236.697 515.818C241.24 517.61 253.375 524.178 251.897 542.445V544.093C259.616 544.577 264.72 545.427 264.72 546.361C264.72 547.321 259.616 548.154 251.897 548.647V578.528C260.669 579.7 266.537 581.79 266.537 584.186C266.537 586.565 260.737 588.638 252.025 589.827L255.574 715.23C261.502 716.309 265.34 717.872 266.18 719.639C279.02 712.384 294.415 700.889 305.786 683.446C323.924 655.621 340.135 642.86 346.503 638.527C346.673 631.475 346.911 623.141 347.208 613.982C341.408 613.115 337.358 611.229 337.358 609.02C337.358 606.76 341.553 604.823 347.531 603.99C347.896 592.589 348.321 580.312 348.754 567.967C342.147 567.381 337.358 565.792 337.358 563.906C337.358 561.986 342.283 560.38 349.042 559.811C349.441 548.885 349.841 538.069 350.214 527.857C347.318 527.33 345.238 526.03 345.238 524.492C345.238 522.903 347.437 521.595 350.477 521.094C351.216 501.187 351.862 484.416 352.227 475.291C347.48 473.541 343.378 470.287 340.542 465.223C330.267 446.957 341.672 424.128 341.672 424.128C339.387 448.095 347.378 466.37 362.213 467.509C377.048 468.656 393.021 460.652 393.021 460.652C381.735 473.566 365.355 479.582 353.076 475.589C353.67 485.317 354.664 501.816 355.81 521.119C358.731 521.638 360.812 522.946 360.812 524.492C360.812 525.971 358.918 527.237 356.201 527.797C356.812 538.018 357.458 548.834 358.103 559.717C365.525 560.167 371.044 561.867 371.044 563.906C371.044 565.902 365.754 567.559 358.587 568.06C359.317 580.422 360.031 592.64 360.71 603.956C366.773 604.78 371.044 606.752 371.044 609.02C371.044 611.204 367.045 613.098 361.287 613.965C361.873 623.956 362.408 632.903 362.824 640.133C370.289 645.664 385.03 658.501 401.283 683.446C424.644 719.291 465.132 730.2 465.132 730.2C465.132 730.2 468.257 737.991 440.218 734.873C440.218 734.873 532.955 772.757 566.421 838.203L567.143 728.594C559.169 727.405 553.938 725.425 553.938 723.174C553.938 720.922 559.186 718.926 567.168 717.736V687.694C560.927 687.193 556.953 686.437 556.953 685.604C556.953 684.754 560.927 684.007 567.168 683.531V681.696C565.58 662.24 579.575 656.157 583.116 654.925C583.065 652.563 583.039 650.031 583.022 647.371C580.084 647.304 577.842 646.955 577.842 646.522C577.842 646.089 580.084 645.74 583.022 645.681C583.039 632.597 583.617 622.062 584.356 622.062C585.077 622.062 585.672 632.605 585.68 645.689C588.27 645.791 590.189 646.131 590.189 646.522C590.189 646.921 588.27 647.253 585.68 647.355C585.672 650.124 585.638 652.792 585.587 655.239C590.096 657.04 602.163 663.548 600.685 681.696V683.344C608.353 683.828 613.423 684.661 613.423 685.604C613.423 686.547 608.353 687.38 600.685 687.864V717.549C609.406 718.713 615.223 720.786 615.223 723.174C615.223 725.527 609.457 727.6 600.812 728.773L604.328 853.36C610.994 854.583 615.223 856.393 615.223 858.406C615.223 860.403 611.096 862.196 604.617 863.411L605.678 900.844C654.573 848.908 670.113 779.078 658.828 716.785C651.058 683.922 632.036 654.321 601.73 627.992C560.952 592.58 512.329 570.575 455.859 561.994V559.836C463.001 558.426 471.221 556.268 480.528 553.396C489.809 550.558 499.116 546.268 508.406 540.524C526.994 529.794 544.156 513.881 559.891 492.759C575.618 471.672 583.489 444.314 583.489 410.678C583.489 358.453 561.496 312.123 517.534 271.699C473.556 231.291 422.241 210.722 363.614 210H0ZM360.2 444.739L354.188 440.364H361.635L363.928 433.286L366.23 440.364H373.685L367.648 444.739L369.966 451.833L363.928 447.458L357.908 451.833L360.2 444.739ZM122.501 451.672V489.446C127.944 489.565 133.133 489.845 137.99 490.278V451.672C137.99 447.399 134.525 443.932 130.245 443.932C125.974 443.932 122.501 447.399 122.501 451.672V451.672ZM94.2662 451.672V490.508C99.0895 490.007 104.278 489.684 109.747 489.514V451.672C109.747 447.399 106.282 443.932 102.011 443.932C97.7308 443.932 94.2662 447.399 94.2662 451.672V451.672ZM238.608 556.302V577.559C241.665 577.627 244.586 577.771 247.329 578.026V556.302C247.329 553.897 245.376 551.943 242.973 551.943C240.561 551.943 238.608 553.897 238.608 556.302V556.302ZM222.72 556.302V578.154C225.446 577.873 228.358 577.695 231.432 577.602V556.302C231.432 553.897 229.479 551.943 227.076 551.943C224.682 551.943 222.72 553.897 222.72 556.302V556.302ZM587.472 695.476V716.581C590.529 716.649 593.433 716.802 596.142 717.048V695.476C596.142 693.089 594.206 691.152 591.811 691.152C589.425 691.152 587.472 693.089 587.472 695.476V695.476ZM571.703 695.476V717.176C574.395 716.895 577.307 716.717 580.356 716.632V695.476C580.356 693.089 578.42 691.152 576.017 691.152C573.63 691.152 571.703 693.089 571.703 695.476ZM256.16 735.587L256.271 739.656C262.86 736.496 266.843 734.873 266.843 734.873C262.572 735.357 259.098 735.553 256.16 735.587" fill="url(#paint1_linear)"/>
<path d="M302.1 865.501C302.1 865.501 -85.0612 1075.26 129.88 727.005V621.611C73.7758 717.549 -147.509 1124.85 302.1 865.501" fill="url(#paint2_linear)"/>
<path d="M354.715 815.679L325.13 801.439L340.695 830.36L318.014 854.098L350.316 848.236L365.873 877.14L370.28 844.608L402.565 838.737L372.989 824.489L377.388 791.941L354.715 815.679Z" fill="url(#paint3_linear)"/>
<path d="M2179.6 373.2C2241.2 373.2 2286.7 383 2316.1 402.6C2345.5 421.733 2360.2 452.533 2360.2 495C2360.2 523.933 2351.8 548.667 2335 569.2C2318.67 589.733 2294.63 602.8 2262.9 608.4V610.5C2299.3 616.567 2327.07 629.4 2346.2 649C2365.33 668.6 2374.9 695.9 2374.9 730.9C2374.9 763.1 2367.43 789.7 2352.5 810.7C2337.57 831.7 2316.8 847.333 2290.2 857.6C2264.07 867.867 2233.73 873 2199.2 873H2041V373.2H2179.6ZM2188.7 593.7C2234.9 593.7 2268.03 585.767 2288.1 569.9C2308.17 554.033 2318.2 530.467 2318.2 499.2C2318.2 467 2307.23 443.9 2285.3 429.9C2263.37 415.9 2228.13 408.9 2179.6 408.9H2081.6V593.7H2188.7ZM2081.6 628.7V837.3H2195.7C2241.43 837.3 2275.5 828.2 2297.9 810C2320.3 791.333 2331.5 764.267 2331.5 728.8C2331.5 694.267 2319.83 669.067 2296.5 653.2C2273.17 636.867 2237.47 628.7 2189.4 628.7H2081.6ZM2606.49 494.3C2648.49 494.3 2679.75 504.567 2700.29 525.1C2720.82 545.633 2731.09 578.067 2731.09 622.4V873H2700.99L2693.99 810H2691.89C2678.35 831 2661.79 848.033 2642.19 861.1C2623.05 873.7 2596.22 880 2561.69 880C2525.75 880 2497.52 871.133 2476.99 853.4C2456.45 835.2 2446.19 809.3 2446.19 775.7C2446.19 738.367 2461.35 710.133 2491.69 691C2522.02 671.4 2566.12 660.433 2623.99 658.1L2691.89 654.6V628.7C2691.89 592.3 2684.42 566.4 2669.49 551C2655.02 535.6 2633.55 527.9 2605.09 527.9C2585.95 527.9 2567.52 530.467 2549.79 535.6C2532.05 540.733 2514.32 547.5 2496.59 555.9L2483.99 523.7C2501.72 515.3 2520.85 508.3 2541.39 502.7C2562.39 497.1 2584.09 494.3 2606.49 494.3ZM2628.89 687.5C2581.29 689.833 2545.82 698.233 2522.49 712.7C2499.62 726.7 2488.19 747.7 2488.19 775.7C2488.19 799.033 2495.19 816.767 2509.19 828.9C2523.65 840.567 2543.49 846.4 2568.69 846.4C2607.42 846.4 2637.52 835.433 2658.99 813.5C2680.45 791.1 2691.42 760.3 2691.89 721.1V684.7L2628.89 687.5ZM2789.28 500.6H2831.28L2920.18 731.6C2927.64 752.6 2934.18 771.267 2939.78 787.6C2945.38 803.467 2949.81 817.7 2953.08 830.3H2955.18C2962.18 806.967 2973.14 774.533 2988.08 733L3074.88 500.6H3117.58L2949.58 938.8C2936.98 971.933 2922.04 997.367 2904.78 1015.1C2887.51 1032.83 2864.18 1041.7 2834.78 1041.7C2825.91 1041.7 2817.74 1041.23 2810.28 1040.3C2803.28 1039.37 2796.74 1037.73 2790.68 1035.4V1001.8C2796.28 1003.67 2802.34 1005.07 2808.88 1006C2815.41 1007.4 2822.41 1008.1 2829.88 1008.1C2849.48 1008.1 2865.34 1002.03 2877.48 989.9C2890.08 977.767 2901.28 959.1 2911.08 933.9L2934.88 871.6L2789.28 500.6ZM3489.8 686.1C3489.8 725.3 3483.27 759.367 3470.2 788.3C3457.6 817.233 3438.7 839.867 3413.5 856.2C3388.77 872.067 3358.44 880 3322.5 880C3287.97 880 3258.34 872.067 3233.6 856.2C3208.87 840.333 3189.74 817.933 3176.2 789C3163.14 759.6 3156.6 725.3 3156.6 686.1C3156.6 625.9 3171.54 578.767 3201.4 544.7C3231.27 510.633 3272.57 493.6 3325.3 493.6C3360.77 493.6 3390.64 501.767 3414.9 518.1C3439.64 533.967 3458.3 556.367 3470.9 585.3C3483.5 614.233 3489.8 647.833 3489.8 686.1ZM3197.9 686.1C3197.9 734.167 3207.94 772.9 3228 802.3C3248.54 831.233 3280.27 845.7 3323.2 845.7C3366.6 845.7 3398.34 831 3418.4 801.6C3438.47 772.2 3448.5 733.7 3448.5 686.1C3448.5 655.3 3444.3 628 3435.9 604.2C3427.5 580.4 3414.2 561.733 3396 548.2C3377.8 534.667 3354 527.9 3324.6 527.9C3282.6 527.9 3250.87 541.9 3229.4 569.9C3208.4 597.9 3197.9 636.633 3197.9 686.1ZM3757.79 493.6C3800.26 493.6 3832.69 504.567 3855.09 526.5C3877.49 548.433 3888.69 582.733 3888.69 629.4V873H3849.49V632.2C3849.49 596.733 3841.33 570.6 3824.99 553.8C3808.66 536.533 3784.86 527.9 3753.59 527.9C3671.93 527.9 3631.09 575.267 3631.09 670V873H3591.19V500.6H3623.39L3628.99 565H3631.79C3641.59 544.467 3657.23 527.433 3678.69 513.9C3700.16 500.367 3726.53 493.6 3757.79 493.6ZM4174.79 493.6C4217.25 493.6 4249.69 504.567 4272.09 526.5C4294.49 548.433 4305.69 582.733 4305.69 629.4V873H4266.49V632.2C4266.49 596.733 4258.32 570.6 4241.99 553.8C4225.65 536.533 4201.85 527.9 4170.59 527.9C4088.92 527.9 4048.09 575.267 4048.09 670V873H4008.19V500.6H4040.39L4045.99 565H4048.79C4058.59 544.467 4074.22 527.433 4095.69 513.9C4117.15 500.367 4143.52 493.6 4174.79 493.6ZM4566.58 493.6C4598.31 493.6 4624.68 501.067 4645.68 516C4667.14 530.467 4683.24 550.533 4693.98 576.2C4705.18 601.867 4710.78 631.267 4710.78 664.4V691.7H4444.78C4444.78 741.167 4456.21 779.2 4479.08 805.8C4502.41 831.933 4535.54 845 4578.48 845C4601.34 845 4621.41 843.133 4638.68 839.4C4655.94 835.2 4674.84 828.667 4695.38 819.8V856.2C4676.71 864.6 4658.28 870.667 4640.08 874.4C4621.88 878.133 4600.88 880 4577.08 880C4521.08 880 4478.14 862.967 4448.28 828.9C4418.41 794.833 4403.48 748.4 4403.48 689.6C4403.48 651.8 4409.78 618.2 4422.38 588.8C4435.44 559.4 4454.11 536.3 4478.38 519.5C4502.64 502.233 4532.04 493.6 4566.58 493.6ZM4565.88 527.2C4531.81 527.2 4504.04 538.633 4482.58 561.5C4461.58 584.367 4449.44 616.8 4446.18 658.8H4669.48C4669.48 619.6 4660.84 587.867 4643.58 563.6C4626.78 539.333 4600.88 527.2 4565.88 527.2ZM5218.64 873L5039.44 415.9H5037.34C5037.81 428.967 5038.28 443.9 5038.74 460.7C5039.68 477.033 5040.14 494.3 5040.14 512.5V873H5001.64V373.2H5063.24L5235.44 810.7H5237.54L5411.84 373.2H5472.04V873H5431.44V508.3C5431.44 492.9 5431.68 477.267 5432.14 461.4C5433.08 445.067 5433.78 430.133 5434.24 416.6H5432.14L5251.54 873H5218.64ZM5896.99 500.6V873H5864.79L5858.49 809.3H5856.39C5846.13 829.833 5830.26 846.867 5808.79 860.4C5787.79 873.467 5761.43 880 5729.69 880C5642.43 880 5598.79 834.733 5598.79 744.2V500.6H5638.69V740.7C5638.69 776.633 5646.63 803.233 5662.49 820.5C5678.83 837.3 5702.86 845.7 5734.59 845.7C5816.26 845.7 5857.09 798.333 5857.09 703.6V500.6H5896.99ZM6255.19 774.3C6255.19 807.9 6242.59 834.033 6217.39 852.7C6192.19 870.9 6156.72 880 6110.99 880C6084.85 880 6061.75 877.667 6041.69 873C6021.62 868.8 6004.82 863.2 5991.29 856.2V817.7C6007.62 826.1 6026.29 833.1 6047.29 838.7C6068.29 843.833 6089.75 846.4 6111.69 846.4C6148.09 846.4 6174.45 840.333 6190.79 828.2C6207.59 815.6 6215.99 798.567 6215.99 777.1C6215.99 756.567 6207.35 740.933 6190.09 730.2C6172.82 719 6147.39 707.567 6113.79 695.9C6090.45 687.967 6069.92 680.033 6052.19 672.1C6034.92 663.7 6021.39 653.2 6011.59 640.6C6001.79 628 5996.89 610.733 5996.89 588.8C5996.89 558.933 6009.02 535.6 6033.29 518.8C6057.55 502 6089.99 493.6 6130.59 493.6C6152.99 493.6 6173.75 495.7 6192.89 499.9C6212.49 504.1 6230.45 509.7 6246.79 516.7L6232.09 549.6C6217.62 543.533 6201.29 538.4 6183.09 534.2C6164.89 529.533 6146.69 527.2 6128.49 527.2C6099.09 527.2 6076.22 532.333 6059.89 542.6C6043.55 552.867 6035.39 567.8 6035.39 587.4C6035.39 602.333 6039.35 614.233 6047.29 623.1C6055.22 631.5 6066.65 638.733 6081.59 644.8C6096.52 650.867 6114.72 657.633 6136.19 665.1C6158.59 673.033 6178.65 681.2 6196.39 689.6C6214.12 698 6228.35 708.733 6239.09 721.8C6249.82 734.867 6255.19 752.367 6255.19 774.3ZM6388.71 873H6348.81V341H6388.71V873ZM6532.49 362.7C6550.69 362.7 6559.79 372.733 6559.79 392.8C6559.79 413.333 6550.69 423.6 6532.49 423.6C6514.29 423.6 6505.19 413.333 6505.19 392.8C6505.19 372.733 6514.29 362.7 6532.49 362.7ZM6552.09 500.6V873H6512.19V500.6H6552.09ZM7064.77 493.6C7101.64 493.6 7130.34 504.1 7150.87 525.1C7171.87 546.1 7182.37 579.233 7182.37 624.5V873H7143.17V625.9C7143.17 592.767 7135.47 568.267 7120.07 552.4C7105.14 536.067 7084.84 527.9 7059.17 527.9C7023.7 527.9 6996.4 538.4 6977.27 559.4C6958.14 579.933 6948.57 611.9 6948.57 655.3V873H6909.37V625.9C6909.37 592.767 6901.67 568.267 6886.27 552.4C6871.34 536.067 6851.04 527.9 6825.37 527.9C6789.9 527.9 6762.6 538.867 6743.47 560.8C6724.8 582.733 6715.47 616.333 6715.47 661.6V873H6675.57V500.6H6707.77L6713.37 559.4H6716.17C6725.5 541.2 6739.5 525.8 6758.17 513.2C6777.3 500.133 6801.57 493.6 6830.97 493.6C6858.04 493.6 6880.9 499.433 6899.57 511.1C6918.24 522.767 6931.54 540.033 6939.47 562.9H6941.57C6952.3 540.967 6968.17 523.933 6989.17 511.8C7010.64 499.667 7035.84 493.6 7064.77 493.6ZM7535.56 774.3C7535.56 807.9 7522.96 834.033 7497.76 852.7C7472.56 870.9 7437.09 880 7391.36 880C7365.22 880 7342.12 877.667 7322.06 873C7301.99 868.8 7285.19 863.2 7271.66 856.2V817.7C7287.99 826.1 7306.66 833.1 7327.66 838.7C7348.66 843.833 7370.12 846.4 7392.06 846.4C7428.46 846.4 7454.82 840.333 7471.16 828.2C7487.96 815.6 7496.36 798.567 7496.36 777.1C7496.36 756.567 7487.72 740.933 7470.46 730.2C7453.19 719 7427.76 707.567 7394.16 695.9C7370.82 687.967 7350.29 680.033 7332.56 672.1C7315.29 663.7 7301.76 653.2 7291.96 640.6C7282.16 628 7277.26 610.733 7277.26 588.8C7277.26 558.933 7289.39 535.6 7313.66 518.8C7337.92 502 7370.36 493.6 7410.96 493.6C7433.36 493.6 7454.12 495.7 7473.26 499.9C7492.86 504.1 7510.82 509.7 7527.16 516.7L7512.46 549.6C7497.99 543.533 7481.66 538.4 7463.46 534.2C7445.26 529.533 7427.06 527.2 7408.86 527.2C7379.46 527.2 7356.59 532.333 7340.26 542.6C7323.92 552.867 7315.76 567.8 7315.76 587.4C7315.76 602.333 7319.72 614.233 7327.66 623.1C7335.59 631.5 7347.02 638.733 7361.96 644.8C7376.89 650.867 7395.09 657.633 7416.56 665.1C7438.96 673.033 7459.02 681.2 7476.76 689.6C7494.49 698 7508.72 708.733 7519.46 721.8C7530.19 734.867 7535.56 752.367 7535.56 774.3Z" fill="#683093"/>
<line x1="1666" y1="1244" x2="1666" stroke="#683093" stroke-width="10"/>
<defs>
<linearGradient id="paint0_linear" x1="1095.07" y1="1917.22" x2="929.451" y2="451.114" gradientUnits="userSpaceOnUse">
<stop stop-color="#96FF0F"/>
<stop offset="1" stop-color="#683093"/>
</linearGradient>
<linearGradient id="paint1_linear" x1="327.306" y1="931.708" x2="331.947" y2="393.635" gradientUnits="userSpaceOnUse">
<stop stop-color="#96FF0F"/>
<stop offset="1" stop-color="#683093"/>
</linearGradient>
<linearGradient id="paint2_linear" x1="233.914" y1="922.639" x2="52.1524" y2="720.292" gradientUnits="userSpaceOnUse">
<stop stop-color="#96FF0F"/>
<stop offset="1" stop-color="#683093"/>
</linearGradient>
<linearGradient id="paint3_linear" x1="331.535" y1="909.48" x2="441.234" y2="606.343" gradientUnits="userSpaceOnUse">
<stop stop-color="#96FF0F"/>
<stop offset="1" stop-color="#683093"/>
</linearGradient>
</defs>
</svg>
