<svg width="250" height="250" viewBox="0 0 250 250" fill="none" xmlns="http://www.w3.org/2000/svg">
<path d="M157.375 75L125 107.375L92.625 75L75 92.625L107.375 125L75 157.375L92.625 175L125 142.625L157.375 175L175 157.375L142.625 125L175 92.625L157.375 75ZM125 0C55.875 0 0 55.875 0 125C0 194.125 55.875 250 125 250C194.125 250 250 194.125 250 125C250 55.875 194.125 0 125 0ZM125 225C69.875 225 25 180.125 25 125C25 69.875 69.875 25 125 25C180.125 25 225 69.875 225 125C225 180.125 180.125 225 125 225Z" fill="#B91C1C"/>
</svg>
